<?xml version="1.0" encoding="utf-8"?>
<!DOCTYPE svg PUBLIC "-//W3C//DTD SVG 1.1//EN" "http://www.w3.org/Graphics/SVG/1.1/DTD/svg11.dtd" [
	<!ENTITY ns_svg "http://www.w3.org/2000/svg">
	<!ENTITY ns_xlink "http://www.w3.org/1999/xlink">
]>
<svg  version="1.1" id="Layer_1" xmlns="&ns_svg;" xmlns:xlink="&ns_xlink;" width="189.676" height="17.406"
	 viewBox="0 0 189.676 17.406" overflow="visible" enable-background="new 0 0 189.676 17.406" xml:space="preserve">
<polygon fill="#F16821" points="15.715,0.684 0.026,0.658 0,16.347 4.912,11.453 10.785,17.346 16.678,11.473 10.804,5.578 "/>
<polygon fill="#F16821" points="16.351,17.1 32.04,17.127 32.066,1.437 27.155,6.331 21.282,0.439 15.389,6.312 21.262,12.206 "/>
<path fill="#35495E" d="M56.396,5.685c-0.931-1.584-2.796-2.54-4.59-2.54c-3.146,0-5.453,2.377-5.453,5.5
	c0,2.983,2.4,5.475,5.406,5.475c1.911,0,3.658-0.909,4.684-2.517h3.426c-1.095,3.402-4.521,5.803-8.086,5.803
	c-2.237,0-4.521-0.979-6.105-2.563c-1.631-1.654-2.517-3.891-2.517-6.222c0-4.66,3.775-8.621,8.505-8.621
	c1.934,0,3.798,0.652,5.149,2.05V0.373h2.609v5.312H56.396z"/>
<path fill="#35495E" d="M61.189,14.424h1.817V3.099h-1.817V0.443h6.781v2.656h-1.794v11.137h3.984v-2.189h3.169v5.032h-12.14V14.424
	z"/>
<path fill="#35495E" d="M75.057,14.424h1.817V3.099h-1.817V0.443h12.326v5.009h-3.168V3.285h-4.171v4.149h4.847v2.469h-4.847v4.404
	h4.171v-2.261h3.168v5.032H75.057V14.424z"/>
<path fill="#35495E" d="M99.853,14.749h1.84l-0.978-2.492h-5.849l-0.955,2.492h1.794v2.33h-6.781v-2.655h1.771l4.847-11.325h-1.841
	V0.443h5.57l5.825,13.981h1.771v2.655h-7.014V14.749z M97.826,4.101h-0.023L95.682,9.81h4.242L97.826,4.101z"/>
<path fill="#35495E" d="M110.132,3.099h-1.793V0.443h7.433c1.631,0,3.053,0.163,4.357,1.282c1.305,1.118,1.98,2.68,1.98,4.38
	c0,2.399-1.607,4.8-4.124,5.01l2.586,3.309h1.889v2.655h-3.892l-5.267-7.478v4.823h1.421v2.655h-6.384v-2.655h1.793V3.099z
	 M115.027,9.297c0.979,0,1.935-0.047,2.771-0.676c0.746-0.582,1.143-1.468,1.143-2.399c0-0.886-0.372-1.794-1.096-2.354
	c-0.698-0.583-1.468-0.583-2.353-0.583h-2.19v6.012H115.027z"/>
<path fill="#35495E" d="M130.983,0.443c1.492,0,3.192,0.186,4.429,1.095c1.397,1.025,2.05,2.609,2.05,4.334
	c0,1.468-0.559,2.89-1.608,3.915c-1.212,1.235-2.563,1.538-4.241,1.538h-2.283v3.1h1.818v2.655h-6.781v-2.655h1.794V3.099h-1.794
	V0.443H130.983z M131.216,8.458c0.792,0,1.515-0.023,2.145-0.56c0.605-0.512,0.908-1.258,0.908-2.027
	c0-0.815-0.396-1.584-1.049-2.027c-0.676-0.489-1.374-0.512-2.144-0.512h-1.748v5.126H131.216z"/>
<path fill="#35495E" d="M138.847,14.424h1.818V3.099h-1.818V0.443h6.782v2.656h-1.795v11.137h3.984v-2.189h3.169v5.032h-12.141
	V14.424z"/>
<path fill="#35495E" d="M163.644,14.749h1.841l-0.979-2.492h-5.85l-0.954,2.492h1.794v2.33h-6.781v-2.655h1.771l4.846-11.325h-1.841
	V0.443h5.57l5.825,13.981h1.771v2.655h-7.015V14.749z M161.617,4.101h-0.023l-2.12,5.708h4.241L161.617,4.101z"/>
<path fill="#35495E" d="M187.882,17.079h-2.96l-7.829-10.951v8.295h1.819v2.655h-6.782v-2.655h1.794V3.099h-1.794V0.443h4.66
	l7.923,11.138V3.099h-1.818V0.443h6.781v2.656h-1.794V17.079z"/>
</svg>
